<svg xmlns="http://www.w3.org/2000/svg" xmlns:xlink="http://www.w3.org/1999/xlink" viewBox="332.886461954023 402.64435199999997 772.8552822988506 328.16678399999995" id="svg1" version="1.1" style="max-height: 500px" width="772.8552822988506" height="328.16678399999995">
  <defs id="defs1">
    
    <clipPath id="clipPath2" clipPathUnits="userSpaceOnUse">
      <path id="path2" transform="translate(-442.11211,-367.54201)" d="M 0,872.784 H 1518.936 V 0 H 0 Z"/>
    </clipPath>
    <clipPath id="clipPath4" clipPathUnits="userSpaceOnUse">
      <path id="path4" transform="translate(-460.08431,-377.32911)" d="M 0,872.784 H 1518.936 V 0 H 0 Z"/>
    </clipPath>
    <clipPath id="clipPath6" clipPathUnits="userSpaceOnUse">
      <path id="path6" transform="translate(-460.12681,-377.43611)" d="M 0,872.784 H 1518.936 V 0 H 0 Z"/>
    </clipPath>
    <clipPath id="clipPath8" clipPathUnits="userSpaceOnUse">
      <path id="path8" transform="translate(-912.0511,-495.82381)" d="M 0,872.784 H 1518.936 V 0 H 0 Z"/>
    </clipPath>
    <clipPath id="clipPath10" clipPathUnits="userSpaceOnUse">
      <path id="path10" transform="translate(-957.6751,-525.67732)" d="M 0,872.784 H 1518.936 V 0 H 0 Z"/>
    </clipPath>
    <clipPath id="clipPath12" clipPathUnits="userSpaceOnUse">
      <path id="path12" transform="translate(-974.0443,-538.09282)" d="M 0,872.784 H 1518.936 V 0 H 0 Z"/>
    </clipPath>
    <clipPath id="clipPath14" clipPathUnits="userSpaceOnUse">
      <path id="path14" d="M 0,872.784 H 1518.936 V 0 H 0 Z"/>
    </clipPath>
    <clipPath id="clipPath16" clipPathUnits="userSpaceOnUse">
      <path id="path16" transform="translate(-1023.9642,-500.05522)" d="M 0,872.784 H 1518.936 V 0 H 0 Z"/>
    </clipPath>
    <clipPath id="clipPath18" clipPathUnits="userSpaceOnUse">
      <path id="path18" transform="translate(-1040.3334,-538.09282)" d="M 0,872.784 H 1518.936 V 0 H 0 Z"/>
    </clipPath>
    <clipPath id="clipPath20" clipPathUnits="userSpaceOnUse">
      <path id="path20" transform="translate(-1069.2465,-526.55332)" d="M 0,872.784 H 1518.936 V 0 H 0 Z"/>
    </clipPath>
    <clipPath id="clipPath22" clipPathUnits="userSpaceOnUse">
      <path id="path22" transform="translate(-1114.1439,-500.56792)" d="M 0,872.784 H 1518.936 V 0 H 0 Z"/>
    </clipPath>
    <clipPath id="clipPath24" clipPathUnits="userSpaceOnUse">
      <path id="path24" transform="translate(-911.04722,-417.39751)" d="M 0,872.784 H 1518.936 V 0 H 0 Z"/>
    </clipPath>
    <clipPath id="clipPath26" clipPathUnits="userSpaceOnUse">
      <path id="path26" d="M 0,872.784 H 1518.936 V 0 H 0 Z"/>
    </clipPath>
    <clipPath id="clipPath28" clipPathUnits="userSpaceOnUse">
      <path id="path28" transform="translate(-951.31382,-466.36431)" d="M 0,872.784 H 1518.936 V 0 H 0 Z"/>
    </clipPath>
    <clipPath id="clipPath30" clipPathUnits="userSpaceOnUse">
      <path id="path30" transform="translate(-987.59312,-418.16651)" d="M 0,872.784 H 1518.936 V 0 H 0 Z"/>
    </clipPath>
    <clipPath id="clipPath32" clipPathUnits="userSpaceOnUse">
      <path id="path32" transform="translate(-1033.6879,-421.20121)" d="M 0,872.784 H 1518.936 V 0 H 0 Z"/>
    </clipPath>
    <clipPath id="clipPath34" clipPathUnits="userSpaceOnUse">
      <path id="path34" transform="translate(-1073.5473,-453.00001)" d="M 0,872.784 H 1518.936 V 0 H 0 Z"/>
    </clipPath>
    <clipPath id="clipPath36" clipPathUnits="userSpaceOnUse">
      <path id="path36" transform="translate(-1114.4857,-415.77351)" d="M 0,872.784 H 1518.936 V 0 H 0 Z"/>
    </clipPath>
    <clipPath id="clipPath38" clipPathUnits="userSpaceOnUse">
      <path id="path38" transform="translate(-1156.6215,-435.17391)" d="M 0,872.784 H 1518.936 V 0 H 0 Z"/>
    </clipPath>
    <clipPath id="clipPath40" clipPathUnits="userSpaceOnUse">
      <path id="path40" transform="translate(-1195.8285,-416.75301)" d="M 0,872.784 H 1518.936 V 0 H 0 Z"/>
    </clipPath>
    <clipPath id="clipPath42" clipPathUnits="userSpaceOnUse">
      <path id="path42" d="M 0,872.784 H 1518.936 V 0 H 0 Z"/>
    </clipPath>
    <clipPath id="clipPath44" clipPathUnits="userSpaceOnUse">
      <path id="path44" transform="translate(-1209.4995,-466.36431)" d="M 0,872.784 H 1518.936 V 0 H 0 Z"/>
    </clipPath>
    <clipPath id="clipPath46" clipPathUnits="userSpaceOnUse">
      <path id="path46" transform="translate(-1249.4799,-420.12161)" d="M 0,872.784 H 1518.936 V 0 H 0 Z"/>
    </clipPath>
    <clipPath id="clipPath48" clipPathUnits="userSpaceOnUse">
      <path id="path48" transform="translate(-915.29912,-361.40921)" d="M 0,872.784 H 1518.936 V 0 H 0 Z"/>
    </clipPath>
    <clipPath id="clipPath50" clipPathUnits="userSpaceOnUse">
      <path id="path50" transform="translate(-957.44072,-337.47511)" d="M 0,872.784 H 1518.936 V 0 H 0 Z"/>
    </clipPath>
    <clipPath id="clipPath52" clipPathUnits="userSpaceOnUse">
      <path id="path52" transform="translate(-1003.9623,-337.47511)" d="M 0,872.784 H 1518.936 V 0 H 0 Z"/>
    </clipPath>
    <clipPath id="clipPath54" clipPathUnits="userSpaceOnUse">
      <path id="path54" transform="translate(-1051.681,-337.47511)" d="M 0,872.784 H 1518.936 V 0 H 0 Z"/>
    </clipPath>
    <clipPath id="clipPath56" clipPathUnits="userSpaceOnUse">
      <path id="path56" transform="translate(-1096.3002,-338.44291)" d="M 0,872.784 H 1518.936 V 0 H 0 Z"/>
    </clipPath>
    <clipPath id="clipPath58" clipPathUnits="userSpaceOnUse">
      <path id="path58" transform="translate(-1109.9721,-388.05421)" d="M 0,872.784 H 1518.936 V 0 H 0 Z"/>
    </clipPath>
    <clipPath id="clipPath60" clipPathUnits="userSpaceOnUse">
      <path id="path60" d="M 0,872.784 H 1518.936 V 0 H 0 Z"/>
    </clipPath>
    <clipPath id="clipPath62" clipPathUnits="userSpaceOnUse">
      <path id="path62" transform="translate(-1141.5228,-364.10351)" d="M 0,872.784 H 1518.936 V 0 H 0 Z"/>
    </clipPath>
    <clipPath id="clipPath64" clipPathUnits="userSpaceOnUse">
      <path id="path64" transform="translate(-1181.6361,-356.86381)" d="M 0,872.784 H 1518.936 V 0 H 0 Z"/>
    </clipPath>
    <clipPath id="clipPath66" clipPathUnits="userSpaceOnUse">
      <path id="path66" d="M 0,872.784 H 1518.936 V 0 H 0 Z"/>
    </clipPath>
    <clipPath id="clipPath68" clipPathUnits="userSpaceOnUse">
      <path id="path68" transform="translate(-356.80501,-502.32031)" d="M 0,872.784 H 1518.936 V 0 H 0 Z"/>
    </clipPath>
    <clipPath id="clipPath70" clipPathUnits="userSpaceOnUse">
      <path id="path70" transform="translate(-814.71325,-441.18171)" d="M 0,872.784 H 1518.936 V 0 H 0 Z"/>
    </clipPath>
    <clipPath id="clipPath72" clipPathUnits="userSpaceOnUse">
      <path id="path72" transform="translate(-686.90122,-414.10651)" d="M 0,872.784 H 1518.936 V 0 H 0 Z"/>
    </clipPath>
    <clipPath id="clipPath74" clipPathUnits="userSpaceOnUse">
      <path id="path74" transform="translate(-567.21031,-380.51371)" d="M 0,872.784 H 1518.936 V 0 H 0 Z"/>
    </clipPath>
  </defs>
  
    
  
  <g id="layer-MC0">
    <path clip-path="url(#clipPath2)" transform="matrix(1.3333333,0,0,-1.3333333,589.4828,673.656)" style="fill:#1f8947;fill-opacity:1;fill-rule:nonzero;stroke:none" d="m 0,0 c -0.256,-0.042 -0.534,-0.064 -0.812,-0.085 -1.731,-0.15 -3.44,-0.193 -5.171,-0.193 h -5.663 c -0.193,0 -0.364,0.043 -0.492,0.193 h -4.979 V 0 Z" id="path1"/>
    <path clip-path="url(#clipPath4)" transform="matrix(1.3333333,0,0,-1.3333333,613.44573,660.60653)" style="fill:#1f8947;fill-opacity:1;fill-rule:nonzero;stroke:none" d="M 0,0 C -0.577,-1.667 -1.475,-3.098 -2.671,-4.252 -1.561,-2.992 -0.663,-1.56 0,0" id="path3"/>
    <path clip-path="url(#clipPath6)" transform="matrix(1.3333333,0,0,-1.3333333,613.5024,660.46387)" style="fill:#1f8947;fill-opacity:1;fill-rule:nonzero;stroke:none" d="m 0,0 c 0,-0.042 0,-0.085 -0.042,-0.107 -0.663,-1.56 -1.561,-2.992 -2.672,-4.252 -0.235,-0.278 -0.47,-0.535 -0.726,-0.791 -2.95,-2.928 -6.988,-4.744 -11.476,-4.744 h -20.237 v 32.46 h 20.237 c 8.954,0 16.22,-7.265 16.22,-16.24 C 1.304,4.082 0.855,1.945 0,0 m -35.153,80.307 h 12.18 c 8.078,0 14.639,-6.56 14.639,-14.638 0,-4.06 -1.645,-7.714 -4.295,-10.364 -2.65,-2.629 -6.304,-4.274 -10.344,-4.274 h -12.18 z M 20.536,49.492 V 94.24 c -1.773,2.778 -3.996,5.108 -6.624,6.988 -8.163,5.834 -18.933,8.826 -32.332,8.954 H -74.131 V -39.833 h 60.091 c 12.608,0 24.126,2.522 34.576,7.586 v 69.601 c -3.205,1.304 -6.859,2.244 -10.92,2.8 v 0.192 c 4.766,2.372 8.378,5.406 10.92,9.146" id="path5"/>
    <path clip-path="url(#clipPath8)" transform="matrix(1.3333333,0,0,-1.3333333,1216.0681,502.6136)" style="fill:#000000;fill-opacity:1;fill-rule:nonzero;stroke:none" d="M 0,0 H -14.958 V 16.797 H 0 c 5.92,0 8.976,-3.954 8.976,-8.399 C 8.976,3.206 5.621,0 0,0 m -14.958,37.889 h 14.595 c 5.47,0 8.398,-3.505 8.398,-7.886 0,-4.445 -2.928,-7.8 -8.398,-7.8 H -14.958 Z M 5.771,19.703 c 4.444,0.962 8.526,5.043 8.526,11.176 0,7.309 -5.172,12.416 -13.634,12.416 h -21.69 V -5.406 H 1.176 c 8.889,0 14.083,5.342 14.083,13.142 0,5.834 -4.318,11.176 -9.488,11.967" id="path7"/>
    <path clip-path="url(#clipPath10)" transform="matrix(1.3333333,0,0,-1.3333333,1276.9001,462.80893)" style="fill:#000000;fill-opacity:1;fill-rule:nonzero;stroke:none" d="m 0,0 v -25.9 c -2.029,-2.864 -6.133,-5.343 -10.363,-5.343 -4.809,0 -7.95,1.838 -7.95,8.035 V 0 h -5.471 v -24.896 c 0,-7.586 3.868,-11.24 11.24,-11.24 5.258,0 9.852,2.778 12.544,5.855 v -4.979 h 5.472 l 0,35.26 z" id="path9"/>
    <path clip-path="url(#clipPath12)" transform="matrix(1.3333333,0,0,-1.3333333,1298.7257,446.25493)" style="fill:#000000;fill-opacity:1;fill-rule:nonzero;stroke:none" d="m 0,0 c -2.051,0 -3.739,-1.688 -3.739,-3.718 0,-2.052 1.688,-3.655 3.739,-3.655 2.03,0 3.633,1.603 3.633,3.655 C 3.633,-1.688 2.03,0 0,0 m -2.777,-47.675 h 5.471 v 35.26 h -5.471 z" id="path11"/>
    <path clip-path="url(#clipPath14)" transform="matrix(1.3333333,0,0,-1.3333333,0,1163.712)" style="fill:#000000;fill-opacity:1;fill-rule:nonzero;stroke:none" d="m 984.836,490.418 h 5.471 v 48.701 h -5.471 z" id="path13"/>
    <path clip-path="url(#clipPath16)" transform="matrix(1.3333333,0,0,-1.3333333,1365.2856,496.97173)" style="fill:#000000;fill-opacity:1;fill-rule:nonzero;stroke:none" d="m 0,0 c -1.881,-3.056 -6.197,-5.621 -10.514,-5.621 -7.137,0 -11.369,5.77 -11.369,13.592 0,7.8 4.232,13.634 11.369,13.634 4.317,0 8.633,-2.629 10.514,-5.685 z M 0,39.064 V 20.301 c -2.843,3.868 -7.138,6.197 -11.882,6.197 -9.21,0 -15.706,-7.223 -15.706,-18.527 0,-11.476 6.496,-18.485 15.706,-18.485 4.958,0 9.254,2.564 11.882,6.133 v -5.257 h 5.492 v 48.702 z" id="path15"/>
    <path clip-path="url(#clipPath18)" transform="matrix(1.3333333,0,0,-1.3333333,1387.1112,446.25493)" style="fill:#000000;fill-opacity:1;fill-rule:nonzero;stroke:none" d="m 0,0 c -2.052,0 -3.719,-1.688 -3.719,-3.718 0,-2.052 1.667,-3.655 3.719,-3.655 2.03,0 3.654,1.603 3.654,3.655 C 3.654,-1.688 2.03,0 0,0 m -2.778,-47.675 h 5.471 v 35.26 h -5.471 z" id="path17"/>
    <path clip-path="url(#clipPath20)" transform="matrix(1.3333333,0,0,-1.3333333,1425.662,461.64093)" style="fill:#000000;fill-opacity:1;fill-rule:nonzero;stroke:none" d="m 0,0 c -5.343,0 -10.15,-2.992 -12.629,-5.983 v 5.107 h -5.492 v -35.26 h 5.492 v 25.772 c 2.115,2.842 6.133,5.47 10.428,5.47 4.744,0 7.971,-1.88 7.971,-8.163 v -23.079 h 5.384 V -11.39 C 11.154,-3.718 7.287,0 0,0" id="path19"/>
    <path clip-path="url(#clipPath22)" transform="matrix(1.3333333,0,0,-1.3333333,1485.5252,496.28813)" style="fill:#000000;fill-opacity:1;fill-rule:nonzero;stroke:none" d="m 0,0 c -1.966,-3.056 -6.219,-5.684 -10.514,-5.684 -7.159,0 -11.39,5.62 -11.39,13.356 0,7.8 4.231,13.42 11.39,13.42 4.295,0 8.548,-2.629 10.514,-5.62 z m 0,25.109 v -5.321 c -2.842,3.868 -7.159,6.197 -11.902,6.197 -9.275,0 -15.686,-7.009 -15.686,-18.313 0,-11.39 6.496,-18.25 15.686,-18.25 4.957,0 9.273,2.693 11.902,6.283 v -5.343 c 0,-7.436 -5.556,-10.279 -11.39,-10.279 -5.044,0 -8.547,1.304 -11.454,4.745 l -2.778,-3.954 c 4.231,-4.167 8.312,-5.321 14.232,-5.321 8.612,0 16.861,3.655 16.861,14.809 v 34.747 z" id="path21"/>
    <path clip-path="url(#clipPath24)" transform="matrix(1.3333333,0,0,-1.3333333,1214.7296,607.182)" style="fill:#000000;fill-opacity:1;fill-rule:nonzero;stroke:none" d="M 0,0 H -9.809 V 38.978 H 0 c 11.668,0 19.189,-7.671 19.189,-19.532 C 19.189,9.766 13.249,0 0,0 m 0,50.154 h -21.754 v -61.33 H 0 c 18.484,0 31.392,12.586 31.392,30.622 0,18.079 -12.908,30.708 -31.392,30.708" id="path23"/>
    <path clip-path="url(#clipPath26)" transform="matrix(1.3333333,0,0,-1.3333333,0,1163.712)" style="fill:#000000;fill-opacity:1;fill-rule:nonzero;stroke:none" d="m 945.641,406.212 h 11.263 v 45.772 h -11.263 z" id="path25"/>
    <path clip-path="url(#clipPath28)" transform="matrix(1.3333333,0,0,-1.3333333,1268.4184,541.89293)" style="fill:#000000;fill-opacity:1;fill-rule:nonzero;stroke:none" d="m 0,0 c -3.735,0 -6.773,-3.039 -6.773,-6.774 0,-3.687 3.038,-6.687 6.773,-6.687 3.75,0 6.688,2.937 6.688,6.687 C 6.688,-3.039 3.688,0 0,0" id="path27"/>
    <path clip-path="url(#clipPath30)" transform="matrix(1.3333333,0,0,-1.3333333,1316.7908,606.15667)" style="fill:#000000;fill-opacity:1;fill-rule:nonzero;stroke:none" d="m 0,0 c -1.923,-2.201 -5.107,-3.483 -8.697,-3.483 -4.616,0 -7.694,2.607 -7.694,6.496 0,3.847 3.078,6.432 7.694,6.432 3.568,0 6.753,-1.26 8.697,-3.397 z m -7.01,34.833 c -7.307,0 -13.227,-2.458 -18.099,-7.522 l -1.389,-1.432 5.834,-8.633 2.094,2.307 c 3.077,3.355 6.389,4.873 10.706,4.873 3.803,0 7.864,-1.603 7.864,-6.091 v -2.179 c -3.12,1.816 -6.859,2.778 -11.069,2.778 -8.035,0 -16.668,-4.979 -16.668,-15.921 0,-10.386 8.59,-15.984 16.668,-15.984 4.167,0 7.927,0.983 11.069,2.906 v -1.88 h 11.262 v 30.537 c 0,10.172 -6.838,16.241 -18.272,16.241" id="path29"/>
    <path clip-path="url(#clipPath32)" transform="matrix(1.3333333,0,0,-1.3333333,1378.2505,602.1104)" style="fill:#000000;fill-opacity:1;fill-rule:nonzero;stroke:none" d="m 0,0 c -1.902,-2.521 -5.685,-4.915 -9.724,-4.915 -7.906,0 -10.727,6.731 -10.727,13.014 0,6.347 2.821,13.121 10.727,13.121 4.018,0 7.8,-2.351 9.724,-4.851 z m 0,30.793 v -2.735 c -3.291,2.415 -7.202,3.74 -11.326,3.74 -12.352,0 -20.644,-9.509 -20.644,-23.699 0,-14.104 8.292,-23.592 20.644,-23.592 4.038,0 8.013,1.368 11.326,3.825 v -0.278 c 0,-8.548 -7.501,-9.466 -10.728,-9.466 -5.299,0 -8.612,1.346 -11.412,4.637 l -2.05,2.415 -6.241,-8.869 1.496,-1.453 c 5.791,-5.706 11.476,-6.881 18.207,-6.881 13.784,0 21.99,7.33 21.99,19.617 v 42.739 z" id="path31"/>
    <path clip-path="url(#clipPath34)" transform="matrix(1.3333333,0,0,-1.3333333,1431.3963,559.712)" style="fill:#000000;fill-opacity:1;fill-rule:nonzero;stroke:none" d="m 0,0 c -4.748,0 -8.968,-1.73 -12.174,-3.923 v 2.907 h -11.263 v -45.772 h 11.263 v 31.458 c 2.091,2.45 5.715,4.744 9.636,4.744 4.174,0 6.761,-1.174 6.761,-7.015 v -29.187 h 11.176 v 31.133 C 15.399,-5.56 9.932,0 0,0" id="path33"/>
    <path clip-path="url(#clipPath36)" transform="matrix(1.3333333,0,0,-1.3333333,1485.9809,609.34733)" style="fill:#000000;fill-opacity:1;fill-rule:nonzero;stroke:none" d="m 0,0 c -7.65,0 -11.069,6.71 -11.069,13.377 0,6.39 3.462,13.271 11.069,13.271 7.607,0 11.069,-6.881 11.069,-13.271 C 11.069,6.71 7.65,0 0,0 m 0,37.226 c -13.143,0 -22.673,-10.044 -22.673,-23.849 0,-13.89 9.53,-23.955 22.673,-23.955 13.143,0 22.673,10.065 22.673,23.955 0,13.805 -9.53,23.849 -22.673,23.849" id="path35"/>
    <path clip-path="url(#clipPath38)" transform="matrix(1.3333333,0,0,-1.3333333,1542.162,583.48013)" style="fill:#000000;fill-opacity:1;fill-rule:nonzero;stroke:none" d="m 0,0 c -4.852,1.16 -8.034,2.05 -8.034,3.779 0,2.337 2.71,3.969 6.591,3.969 4.226,0 8.072,-1.596 10.286,-4.27 l 2.099,-2.532 5.912,8.784 -1.395,1.433 c -2.963,3.039 -8.302,6.663 -16.902,6.663 -12.093,0 -17.6,-7.369 -17.6,-14.216 0,-10.306 9.552,-12.628 16.526,-14.324 5.455,-1.327 8.766,-2.3 8.766,-4.623 0,-2.857 -2.716,-4.562 -7.268,-4.562 -5.026,0 -9.443,2.505 -11.587,4.986 l -2.061,2.382 -6.194,-8.801 1.405,-1.461 c 4.58,-4.766 10.726,-7.184 18.268,-7.184 12.74,0 18.444,7.438 18.444,14.809 C 17.256,-4.127 7.282,-1.742 0,0" id="path37"/>
    <path clip-path="url(#clipPath40)" transform="matrix(1.3333333,0,0,-1.3333333,1594.438,608.04133)" style="fill:#000000;fill-opacity:1;fill-rule:nonzero;stroke:none" d="m 0,0 c -0.425,-0.467 -1.386,-0.97 -2.493,-0.97 -1.064,0 -1.602,0.936 -1.602,2.784 V 24.73 H 4.196 V 35.231 H -4.095 V 46.397 H -15.44 V 35.231 h -6.768 V 24.73 h 6.768 V 0.461 c 0,-7.637 4.224,-12.017 11.592,-12.017 3.865,0 6.881,1.079 9.221,3.296 L 6.568,-7.127 2.681,2.949 Z" id="path39"/>
    <path clip-path="url(#clipPath42)" transform="matrix(1.3333333,0,0,-1.3333333,0,1163.712)" style="fill:#000000;fill-opacity:1;fill-rule:nonzero;stroke:none" d="m 1203.824,406.212 h 11.264 v 45.772 h -11.264 z" id="path41"/>
    <path clip-path="url(#clipPath44)" transform="matrix(1.3333333,0,0,-1.3333333,1612.6659,541.89293)" style="fill:#000000;fill-opacity:1;fill-rule:nonzero;stroke:none" d="m 0,0 c -3.735,0 -6.773,-3.039 -6.773,-6.774 0,-3.687 3.038,-6.687 6.773,-6.687 3.751,0 6.688,2.937 6.688,6.687 C 6.688,-3.039 3.688,0 0,0" id="path43"/>
    <path clip-path="url(#clipPath46)" transform="matrix(1.3333333,0,0,-1.3333333,1665.9732,603.54987)" style="fill:#000000;fill-opacity:1;fill-rule:nonzero;stroke:none" d="m 0,0 c -2.203,-2.96 -4.881,-4.339 -8.431,-4.339 -6.978,0 -11.667,5.368 -11.667,13.358 0,7.939 4.689,13.273 11.667,13.273 3.692,0 6.288,-1.305 8.416,-4.231 l 1.605,-2.208 7.951,7.157 -1.39,1.805 c -4.181,5.427 -9.717,8.063 -16.92,8.063 -13.238,0 -22.844,-10.034 -22.844,-23.859 0,-13.873 9.606,-23.943 22.844,-23.943 7.206,0 12.739,2.637 16.92,8.063 l 1.376,1.786 -7.896,7.264 z" id="path45"/>
    <path clip-path="url(#clipPath48)" transform="matrix(1.3333333,0,0,-1.3333333,1220.3988,681.83307)" style="fill:#000000;fill-opacity:1;fill-rule:nonzero;stroke:none" d="M 0,0 H -12.33 V 16.646 H 0 c 5.407,0 8.891,-3.248 8.891,-8.27 C 8.891,3.355 5.321,0 0,0 m 7.992,-9.766 c 6.988,2.03 13.079,7.992 13.079,18.142 0,11.455 -8.313,19.447 -20.216,19.447 h -25.13 v -61.331 h 11.945 v 22.417 h 7.522 L 9.488,-33.508 h 14.211 z" id="path47"/>
    <path clip-path="url(#clipPath50)" transform="matrix(1.3333333,0,0,-1.3333333,1276.5876,713.7452)" style="fill:#000000;fill-opacity:1;fill-rule:nonzero;stroke:none" d="m 0,0 c -7.65,0 -11.091,6.71 -11.091,13.356 0,6.39 3.484,13.27 11.091,13.27 7.607,0 11.069,-6.88 11.069,-13.27 C 11.069,6.71 7.65,0 0,0 m 0,37.205 c -13.143,0 -22.694,-10.023 -22.694,-23.849 0,-13.869 9.551,-23.934 22.694,-23.934 13.121,0 22.673,10.065 22.673,23.934 0,13.826 -9.552,23.849 -22.673,23.849" id="path49"/>
    <path clip-path="url(#clipPath52)" transform="matrix(1.3333333,0,0,-1.3333333,1338.6163,713.7452)" style="fill:#000000;fill-opacity:1;fill-rule:nonzero;stroke:none" d="m 0,0 c -3.697,0 -7.778,1.987 -9.809,4.723 v 17.01 c 1.817,2.457 5.685,4.893 9.809,4.893 6.475,0 10.642,-5.235 10.642,-13.355 C 10.642,5.214 6.475,0 0,0 m 1.518,37.205 c -4.125,0 -8.036,-1.304 -11.327,-3.719 V 51.757 H -21.07 V -9.574 h 11.261 v 2.693 c 3.291,-2.372 7.245,-3.697 11.327,-3.697 12.351,0 20.642,9.574 20.642,23.849 0,14.317 -8.291,23.934 -20.642,23.934" id="path51"/>
    <path clip-path="url(#clipPath54)" transform="matrix(1.3333333,0,0,-1.3333333,1402.2413,713.7452)" style="fill:#000000;fill-opacity:1;fill-rule:nonzero;stroke:none" d="m 0,0 c -7.651,0 -11.091,6.71 -11.091,13.356 0,6.39 3.483,13.27 11.091,13.27 7.607,0 11.069,-6.88 11.069,-13.27 C 11.069,6.71 7.65,0 0,0 m 0,37.205 c -13.143,0 -22.674,-10.023 -22.674,-23.849 0,-13.869 9.531,-23.934 22.674,-23.934 13.12,0 22.673,10.065 22.673,23.934 0,13.826 -9.553,23.849 -22.673,23.849" id="path53"/>
    <path clip-path="url(#clipPath56)" transform="matrix(1.3333333,0,0,-1.3333333,1461.7336,712.4548)" style="fill:#000000;fill-opacity:1;fill-rule:nonzero;stroke:none" d="m 0,0 c -0.426,-0.467 -1.386,-0.97 -2.493,-0.97 -1.065,0 -1.602,0.936 -1.602,2.784 V 24.73 h 8.29 v 10.501 h -8.29 V 46.396 H -15.44 V 35.231 h -6.769 V 24.73 h 6.769 V 0.461 c 0,-7.637 4.224,-12.017 11.592,-12.017 3.865,0 6.881,1.078 9.22,3.295 L 6.568,-7.127 2.68,2.949 Z" id="path55"/>
    <path clip-path="url(#clipPath58)" transform="matrix(1.3333333,0,0,-1.3333333,1479.9627,646.3064)" style="fill:#000000;fill-opacity:1;fill-rule:nonzero;stroke:none" d="m 0,0 c -3.734,0 -6.772,-3.04 -6.772,-6.774 0,-3.688 3.038,-6.687 6.772,-6.687 3.752,0 6.689,2.937 6.689,6.687 C 6.689,-3.04 3.689,0 0,0" id="path57"/>
    <path clip-path="url(#clipPath60)" transform="matrix(1.3333333,0,0,-1.3333333,0,1163.712)" style="fill:#000000;fill-opacity:1;fill-rule:nonzero;stroke:none" d="m 1104.297,327.902 h 11.264 v 45.772 h -11.264 z" id="path59"/>
    <path clip-path="url(#clipPath62)" transform="matrix(1.3333333,0,0,-1.3333333,1522.0304,678.24067)" style="fill:#000000;fill-opacity:1;fill-rule:nonzero;stroke:none" d="m 0,0 c 3.691,0 6.288,-1.305 8.416,-4.232 l 1.605,-2.207 7.951,7.157 -1.39,1.805 c -4.182,5.426 -9.718,8.063 -16.92,8.063 -13.238,0 -22.845,-10.034 -22.845,-23.859 0,-13.873 9.607,-23.943 22.845,-23.943 7.205,0 12.738,2.637 16.92,8.063 l 1.376,1.786 -7.897,7.264 -1.63,-2.189 C 6.228,-25.252 3.55,-26.631 0,-26.631 c -6.979,0 -11.667,5.368 -11.667,13.358 C -11.667,-5.334 -6.979,0 0,0" id="path61"/>
    <path clip-path="url(#clipPath64)" transform="matrix(1.3333333,0,0,-1.3333333,1575.5148,687.8936)" style="fill:#000000;fill-opacity:1;fill-rule:nonzero;stroke:none" d="m 0,0 c -4.852,1.16 -8.034,2.05 -8.034,3.779 0,2.337 2.71,3.969 6.591,3.969 4.226,0 8.072,-1.596 10.286,-4.27 l 2.098,-2.532 5.913,8.784 -1.395,1.433 c -2.963,3.039 -8.302,6.663 -16.902,6.663 -12.093,0 -17.6,-7.369 -17.6,-14.217 0,-10.305 9.552,-12.628 16.525,-14.323 5.456,-1.327 8.767,-2.3 8.767,-4.623 0,-2.857 -2.717,-4.562 -7.268,-4.562 -5.026,0 -9.443,2.505 -11.587,4.985 l -2.061,2.383 -6.194,-8.801 1.405,-1.461 c 4.58,-4.766 10.726,-7.184 18.267,-7.184 12.741,0 18.445,7.438 18.445,14.809 C 17.256,-4.127 7.281,-1.743 0,0" id="path63"/>
    <path clip-path="url(#clipPath66)" transform="matrix(1.3333333,0,0,-1.3333333,0,1163.712)" style="fill:#231f20;fill-opacity:1;fill-rule:nonzero;stroke:none" d="m 862.941,313.984 h -2.952 V 549.44 h 2.952 z" id="path65"/>
    <path clip-path="url(#clipPath68)" transform="matrix(1.3333333,0,0,-1.3333333,475.74,493.9516)" style="fill:#1f8947;fill-opacity:1;fill-rule:nonzero;stroke:none" d="m 0,0 v -155.999 h -20.28 c -0.086,1.71 -0.278,3.634 -0.278,5.578 -0.021,32.61 0.064,106.314 -0.107,138.924 0,0 14.767,8.057 20.665,11.497 m 38.422,49.513 v 6.967 h -67.72 v -6.838 c 0,-17.139 -0.128,-39.897 0.128,-57.015 l -35.26,-20.236 c 0.15,-26.905 0.086,-94.711 0.086,-121.615 v -7.202 H -96.89 v -8.248 h 41.35 v 7.18 c 0,27.93 -0.021,96.12 0.107,124.072 0,0 17.373,10.899 26.263,16.241 V -164.717 H 9.039 V -29.64 C 8.868,-15.258 8.654,15.343 8.654,15.343 -1.304,9.488 -10.493,4.103 -20.237,-1.603 V 47.633 H 29.297 V -5.449 h 9.125 c 0.086,23.036 0,31.563 0,54.962" id="path67"/>
    <path clip-path="url(#clipPath70)" transform="matrix(1.3333333,0,0,-1.3333333,1086.2843,575.46973)" style="fill:#1f8947;fill-opacity:1;fill-rule:nonzero;stroke:none" d="m 0,0 v -101.228 h -12.63 l 0.257,119.927 -12.587,5.384 v -125.311 h -38.081 l -0.042,156.96 -12.203,9.445 v -166.426 h -1.581 l -2.393,3.868 c -8.463,13.697 -16.412,26.584 -24.383,39.512 0.962,0.684 1.816,1.283 2.629,1.881 12.287,8.996 20.173,23.976 21.647,41.136 1.474,17.053 -3.697,33.081 -14.189,43.957 -11.946,12.416 -27.632,15.771 -41.415,17.438 l -6.026,0.641 -9.98,0.15 11.369,6.154 64.344,41.778 29.789,-18.271 0.107,-41.928 c 5.791,3.548 17.865,12.267 17.865,12.267 C -14.724,40.987 0,34.875 0,34.875 0,34.875 -0.043,4.338 0,0" id="path69"/>
    <path clip-path="url(#clipPath72)" transform="matrix(1.3333333,0,0,-1.3333333,915.86827,611.57)" style="fill:#1f8947;fill-opacity:1;fill-rule:nonzero;stroke:none" d="M 0,0 C -4.125,-4.103 -9.787,-6.646 -16.07,-6.646 H -45.325 V 38.765 H -16.07 C -3.526,38.765 6.646,28.592 6.646,16.048 6.646,9.787 4.103,4.125 0,0 m 44.428,-72.849 c -8.89,14.382 -17.224,27.866 -25.58,41.457 l -1.197,1.923 3.163,2.244 c 1.176,0.833 2.159,1.517 3.12,2.223 11.155,8.163 18.314,21.882 19.681,37.631 C 44.962,28.293 40.282,42.953 30.751,52.826 19.874,64.13 5.193,67.229 -7.714,68.789 l -5.877,0.641 -64.964,0.919 V -73.896 h 33.23 v 37.781 l 27.225,0.129 18.848,-38.06 44.491,-0.149 z" id="path71"/>
    <path clip-path="url(#clipPath74)" transform="matrix(1.3333333,0,0,-1.3333333,756.2804,656.3604)" style="fill:#1f8947;fill-opacity:1;fill-rule:nonzero;stroke:none" d="m 0,0 c -7.181,-5.642 -15.472,-8.869 -24.853,-9.659 l -19.81,-0.107 -0.192,75.349 -0.006,2.35 v 6.027 h 0.006 l 14.895,0.107 c 12.629,0 22.908,-3.654 30.857,-10.963 C 8.847,55.796 12.822,45.432 12.822,31.99 12.822,17.373 8.548,6.71 0,0 M 31.028,85.222 C 16.113,99.689 -1.838,106.976 -22.78,107.104 h -22.081 v 0.041 H -78.233 V 20.358 l -10e-4,-0.762 -0.107,-62.507 h 55.561 c 20.814,0 38.721,7.202 53.723,21.605 1.047,1.005 2.051,2.03 3.034,3.077 V 82.23 c -0.961,1.004 -1.944,2.03 -2.949,2.992" id="path73"/>
  </g>
</svg>